# xmcd CD database file
#
# Track frame offsets:
#	150
#	16940
#	29222
#	40580
#	51442
#	65600
#	81040
#	91780
#	103530
#	117102
#	129220
#	142480
#	156527
#	172132
#	182437
#	195150
#
# Disc length: 2780 seconds
#
# Revision: 0
# Processed by: cddbd v1.5.1PL2 Copyright (c) Steve Scherf et al.
# Submitted via: CDex 1.51
#
DISCID=d80ada10
DTITLE=Eddie Dean - The Very Best
DYEAR=2000
DGENRE=Country
TTITLE0=I Dreamed of a Hill-Bill Heaven
TTITLE1=One Has My Name (The Other Has My Heart)
TTITLE2=Release Me
TTITLE3=I Fall to Pieces
TTITLE4=That Silver-Haired Daddy of Mine
TTITLE5=The Green Green Grass of Home
TTITLE6=Born to Lose
TTITLE7=Somewhere My Love (Lara's Theme)
TTITLE8=Cool Water
TTITLE9=I Can't Help Falling in Love With You
TTITLE10=Four Walls
TTITLE11=Tumbling Tumbleweeds
TTITLE12=My Elusive Dreams
TTITLE13=My Whole Life Was You
TTITLE14=Shenandoah
TTITLE15=On the Banks of the Sunny San Juan
EXTD=YEAR: 2000
EXTT0=
EXTT1=
EXTT2=
EXTT3=
EXTT4=
EXTT5=
EXTT6=
EXTT7=
EXTT8=
EXTT9=
EXTT10=
EXTT11=
EXTT12=
EXTT13=
EXTT14=
EXTT15=
PLAYORDER=
